<mxfile host="Electron" modified="2023-10-02T12:44:10.932Z" agent="Mozilla/5.0 (Macintosh; Intel Mac OS X 10_15_7) AppleWebKit/537.36 (KHTML, like Gecko) draw.io/21.5.0 Chrome/112.0.5615.204 Electron/24.5.1 Safari/537.36" etag="GogbaJYyBsQqAm9SzjHk" version="21.5.0" type="device">
  <diagram name="Page-1" id="ZWwhjqi4sdsqILkefYgQ">
    <mxGraphModel dx="1084" dy="1167" grid="1" gridSize="10" guides="1" tooltips="1" connect="1" arrows="1" fold="1" page="1" pageScale="1" pageWidth="827" pageHeight="1169" math="0" shadow="0">
      <root>
        <mxCell id="0" />
        <mxCell id="1" parent="0" />
        <mxCell id="iiUejpQT_IoH3Ai73_fj-1" value="&lt;font style=&quot;font-size: 16px;&quot;&gt;Noise Vector&lt;/font&gt;" style="rounded=0;whiteSpace=wrap;html=1;fillColor=#f5f5f5;gradientColor=#b3b3b3;strokeColor=#666666;" parent="1" vertex="1">
          <mxGeometry x="80" y="200" width="100" height="100" as="geometry" />
        </mxCell>
        <mxCell id="iiUejpQT_IoH3Ai73_fj-4" value="&lt;font style=&quot;font-size: 16px;&quot;&gt;Malware Sample&lt;/font&gt;" style="rounded=0;whiteSpace=wrap;html=1;fillColor=#f5f5f5;gradientColor=#b3b3b3;strokeColor=#666666;" parent="1" vertex="1">
          <mxGeometry x="210" y="200" width="100" height="100" as="geometry" />
        </mxCell>
        <mxCell id="iiUejpQT_IoH3Ai73_fj-5" value="&lt;font style=&quot;font-size: 17px;&quot;&gt;Input Layer&lt;/font&gt;" style="rounded=0;whiteSpace=wrap;html=1;fillColor=#CCE5FF;" parent="1" vertex="1">
          <mxGeometry x="100" y="360" width="220" height="40" as="geometry" />
        </mxCell>
        <mxCell id="iiUejpQT_IoH3Ai73_fj-24" value="" style="endArrow=none;html=1;rounded=0;" parent="1" edge="1">
          <mxGeometry width="50" height="50" relative="1" as="geometry">
            <mxPoint x="140" y="330" as="sourcePoint" />
            <mxPoint x="140" y="300" as="targetPoint" />
          </mxGeometry>
        </mxCell>
        <mxCell id="iiUejpQT_IoH3Ai73_fj-25" value="" style="endArrow=none;html=1;rounded=0;" parent="1" edge="1">
          <mxGeometry width="50" height="50" relative="1" as="geometry">
            <mxPoint x="250" y="330" as="sourcePoint" />
            <mxPoint x="250" y="300" as="targetPoint" />
          </mxGeometry>
        </mxCell>
        <mxCell id="iiUejpQT_IoH3Ai73_fj-26" value="" style="endArrow=none;html=1;rounded=0;" parent="1" edge="1">
          <mxGeometry width="50" height="50" relative="1" as="geometry">
            <mxPoint x="140" y="330" as="sourcePoint" />
            <mxPoint x="180" y="330" as="targetPoint" />
          </mxGeometry>
        </mxCell>
        <mxCell id="iiUejpQT_IoH3Ai73_fj-27" value="" style="endArrow=none;html=1;rounded=0;" parent="1" edge="1">
          <mxGeometry width="50" height="50" relative="1" as="geometry">
            <mxPoint x="210" y="330" as="sourcePoint" />
            <mxPoint x="250" y="330" as="targetPoint" />
          </mxGeometry>
        </mxCell>
        <mxCell id="iiUejpQT_IoH3Ai73_fj-28" value="" style="endArrow=none;html=1;rounded=0;" parent="1" edge="1">
          <mxGeometry width="50" height="50" relative="1" as="geometry">
            <mxPoint x="180" y="330" as="sourcePoint" />
            <mxPoint x="210" y="330" as="targetPoint" />
          </mxGeometry>
        </mxCell>
        <mxCell id="J-M-ponjF-od5S9jLfGf-1" value="&lt;span style=&quot;font-size: 17px;&quot;&gt;Encoder Block, #F = 64&lt;/span&gt;" style="rounded=0;whiteSpace=wrap;html=1;fillColor=#99CCFF;" vertex="1" parent="1">
          <mxGeometry x="110" y="420" width="220" height="40" as="geometry" />
        </mxCell>
        <mxCell id="J-M-ponjF-od5S9jLfGf-2" value="&lt;span style=&quot;font-size: 17px;&quot;&gt;Encoder Block, #F = 128&lt;/span&gt;" style="rounded=0;whiteSpace=wrap;html=1;fillColor=#66B2FF;" vertex="1" parent="1">
          <mxGeometry x="120" y="480" width="220" height="40" as="geometry" />
        </mxCell>
        <mxCell id="J-M-ponjF-od5S9jLfGf-3" value="&lt;span style=&quot;font-size: 17px;&quot;&gt;Encoder Block, #F = 256&lt;/span&gt;" style="rounded=0;whiteSpace=wrap;html=1;fillColor=#3399FF;" vertex="1" parent="1">
          <mxGeometry x="130" y="540" width="220" height="40" as="geometry" />
        </mxCell>
        <mxCell id="J-M-ponjF-od5S9jLfGf-4" value="&lt;span style=&quot;font-size: 17px;&quot;&gt;Encoder Block, #F = 512&lt;/span&gt;" style="rounded=0;whiteSpace=wrap;html=1;fillColor=#007FFF;" vertex="1" parent="1">
          <mxGeometry x="140" y="600" width="220" height="40" as="geometry" />
        </mxCell>
        <mxCell id="J-M-ponjF-od5S9jLfGf-5" value="&lt;span style=&quot;font-size: 17px;&quot;&gt;Encoder Block, #F = 512&lt;/span&gt;" style="rounded=0;whiteSpace=wrap;html=1;fillColor=#007FFF;" vertex="1" parent="1">
          <mxGeometry x="150" y="660" width="220" height="40" as="geometry" />
        </mxCell>
        <mxCell id="J-M-ponjF-od5S9jLfGf-6" value="&lt;span style=&quot;font-size: 17px;&quot;&gt;Encoder Block, #F = 512&lt;/span&gt;" style="rounded=0;whiteSpace=wrap;html=1;fillColor=#007FFF;" vertex="1" parent="1">
          <mxGeometry x="160" y="720" width="220" height="40" as="geometry" />
        </mxCell>
        <mxCell id="J-M-ponjF-od5S9jLfGf-7" value="&lt;span style=&quot;font-size: 17px;&quot;&gt;Bottleneck Layer, #F = 512&lt;/span&gt;" style="rounded=0;whiteSpace=wrap;html=1;fillColor=#0066CC;" vertex="1" parent="1">
          <mxGeometry x="440" y="800" width="250" height="50" as="geometry" />
        </mxCell>
        <mxCell id="J-M-ponjF-od5S9jLfGf-8" value="&lt;span style=&quot;font-size: 17px;&quot;&gt;Decoder Block, #F = 512&lt;/span&gt;" style="rounded=0;whiteSpace=wrap;html=1;fillColor=#007FFF;" vertex="1" parent="1">
          <mxGeometry x="750" y="720" width="220" height="40" as="geometry" />
        </mxCell>
        <mxCell id="J-M-ponjF-od5S9jLfGf-9" value="&lt;span style=&quot;font-size: 17px;&quot;&gt;Decoder Block, #F = 512&lt;/span&gt;" style="rounded=0;whiteSpace=wrap;html=1;fillColor=#007FFF;" vertex="1" parent="1">
          <mxGeometry x="760" y="660" width="220" height="40" as="geometry" />
        </mxCell>
        <mxCell id="J-M-ponjF-od5S9jLfGf-11" value="&lt;span style=&quot;font-size: 17px;&quot;&gt;Decoder Block, #F = 512&lt;/span&gt;" style="rounded=0;whiteSpace=wrap;html=1;fillColor=#007FFF;" vertex="1" parent="1">
          <mxGeometry x="770" y="600" width="220" height="40" as="geometry" />
        </mxCell>
        <mxCell id="J-M-ponjF-od5S9jLfGf-12" value="&lt;span style=&quot;font-size: 17px;&quot;&gt;Decoder Block, #F = 256&lt;/span&gt;" style="rounded=0;whiteSpace=wrap;html=1;fillColor=#3399FF;" vertex="1" parent="1">
          <mxGeometry x="780" y="540" width="220" height="40" as="geometry" />
        </mxCell>
        <mxCell id="J-M-ponjF-od5S9jLfGf-13" value="&lt;span style=&quot;font-size: 17px;&quot;&gt;Decoder Block, #F = 128&lt;/span&gt;" style="rounded=0;whiteSpace=wrap;html=1;fillColor=#66B2FF;" vertex="1" parent="1">
          <mxGeometry x="790" y="480" width="220" height="40" as="geometry" />
        </mxCell>
        <mxCell id="J-M-ponjF-od5S9jLfGf-14" value="&lt;span style=&quot;font-size: 17px;&quot;&gt;Decoder Block, #F = 64&lt;/span&gt;" style="rounded=0;whiteSpace=wrap;html=1;fillColor=#99CCFF;" vertex="1" parent="1">
          <mxGeometry x="800" y="420" width="220" height="40" as="geometry" />
        </mxCell>
        <mxCell id="J-M-ponjF-od5S9jLfGf-15" value="&lt;span style=&quot;font-size: 17px;&quot;&gt;Output Layer&lt;/span&gt;" style="rounded=0;whiteSpace=wrap;html=1;fillColor=#CCE5FF;" vertex="1" parent="1">
          <mxGeometry x="810" y="360" width="220" height="40" as="geometry" />
        </mxCell>
        <mxCell id="J-M-ponjF-od5S9jLfGf-16" value="&lt;font style=&quot;font-size: 16px;&quot;&gt;Adversarial Malware Sample&lt;/font&gt;" style="rounded=0;whiteSpace=wrap;html=1;fillColor=#f5f5f5;gradientColor=#b3b3b3;strokeColor=#666666;" vertex="1" parent="1">
          <mxGeometry x="870" y="200" width="100" height="100" as="geometry" />
        </mxCell>
        <mxCell id="J-M-ponjF-od5S9jLfGf-17" value="" style="endArrow=classic;html=1;rounded=0;" edge="1" parent="1">
          <mxGeometry width="50" height="50" relative="1" as="geometry">
            <mxPoint x="195" y="330" as="sourcePoint" />
            <mxPoint x="195" y="360" as="targetPoint" />
          </mxGeometry>
        </mxCell>
        <mxCell id="J-M-ponjF-od5S9jLfGf-20" value="" style="endArrow=classic;html=1;rounded=0;entryX=0.865;entryY=-0.001;entryDx=0;entryDy=0;entryPerimeter=0;" edge="1" parent="1" target="J-M-ponjF-od5S9jLfGf-6">
          <mxGeometry width="50" height="50" relative="1" as="geometry">
            <mxPoint x="350" y="700" as="sourcePoint" />
            <mxPoint x="400" y="650" as="targetPoint" />
          </mxGeometry>
        </mxCell>
        <mxCell id="J-M-ponjF-od5S9jLfGf-21" value="" style="endArrow=classic;html=1;rounded=0;entryX=0.865;entryY=-0.001;entryDx=0;entryDy=0;entryPerimeter=0;" edge="1" parent="1">
          <mxGeometry width="50" height="50" relative="1" as="geometry">
            <mxPoint x="340" y="640" as="sourcePoint" />
            <mxPoint x="340" y="660" as="targetPoint" />
          </mxGeometry>
        </mxCell>
        <mxCell id="J-M-ponjF-od5S9jLfGf-22" value="" style="endArrow=classic;html=1;rounded=0;entryX=0.865;entryY=-0.001;entryDx=0;entryDy=0;entryPerimeter=0;" edge="1" parent="1">
          <mxGeometry width="50" height="50" relative="1" as="geometry">
            <mxPoint x="330" y="580" as="sourcePoint" />
            <mxPoint x="330" y="600" as="targetPoint" />
          </mxGeometry>
        </mxCell>
        <mxCell id="J-M-ponjF-od5S9jLfGf-23" value="" style="endArrow=classic;html=1;rounded=0;entryX=0.865;entryY=-0.001;entryDx=0;entryDy=0;entryPerimeter=0;" edge="1" parent="1">
          <mxGeometry width="50" height="50" relative="1" as="geometry">
            <mxPoint x="320" y="520" as="sourcePoint" />
            <mxPoint x="320" y="540" as="targetPoint" />
          </mxGeometry>
        </mxCell>
        <mxCell id="J-M-ponjF-od5S9jLfGf-24" value="" style="endArrow=classic;html=1;rounded=0;entryX=0.865;entryY=-0.001;entryDx=0;entryDy=0;entryPerimeter=0;" edge="1" parent="1">
          <mxGeometry width="50" height="50" relative="1" as="geometry">
            <mxPoint x="310" y="460" as="sourcePoint" />
            <mxPoint x="310" y="480" as="targetPoint" />
          </mxGeometry>
        </mxCell>
        <mxCell id="J-M-ponjF-od5S9jLfGf-25" value="" style="endArrow=classic;html=1;rounded=0;entryX=0.865;entryY=-0.001;entryDx=0;entryDy=0;entryPerimeter=0;" edge="1" parent="1">
          <mxGeometry width="50" height="50" relative="1" as="geometry">
            <mxPoint x="300" y="400" as="sourcePoint" />
            <mxPoint x="300" y="420" as="targetPoint" />
            <Array as="points">
              <mxPoint x="300" y="410" />
            </Array>
          </mxGeometry>
        </mxCell>
        <mxCell id="J-M-ponjF-od5S9jLfGf-26" value="" style="endArrow=classic;html=1;rounded=0;entryX=0.865;entryY=-0.001;entryDx=0;entryDy=0;entryPerimeter=0;" edge="1" parent="1">
          <mxGeometry width="50" height="50" relative="1" as="geometry">
            <mxPoint x="780" y="720" as="sourcePoint" />
            <mxPoint x="780" y="700" as="targetPoint" />
          </mxGeometry>
        </mxCell>
        <mxCell id="J-M-ponjF-od5S9jLfGf-27" value="" style="endArrow=classic;html=1;rounded=0;entryX=0.865;entryY=-0.001;entryDx=0;entryDy=0;entryPerimeter=0;" edge="1" parent="1">
          <mxGeometry width="50" height="50" relative="1" as="geometry">
            <mxPoint x="790" y="660" as="sourcePoint" />
            <mxPoint x="790" y="640" as="targetPoint" />
          </mxGeometry>
        </mxCell>
        <mxCell id="J-M-ponjF-od5S9jLfGf-28" value="" style="endArrow=classic;html=1;rounded=0;entryX=0.865;entryY=-0.001;entryDx=0;entryDy=0;entryPerimeter=0;" edge="1" parent="1">
          <mxGeometry width="50" height="50" relative="1" as="geometry">
            <mxPoint x="800" y="600" as="sourcePoint" />
            <mxPoint x="800" y="580" as="targetPoint" />
          </mxGeometry>
        </mxCell>
        <mxCell id="J-M-ponjF-od5S9jLfGf-29" value="" style="endArrow=classic;html=1;rounded=0;entryX=0.865;entryY=-0.001;entryDx=0;entryDy=0;entryPerimeter=0;" edge="1" parent="1">
          <mxGeometry width="50" height="50" relative="1" as="geometry">
            <mxPoint x="810" y="540" as="sourcePoint" />
            <mxPoint x="810" y="520" as="targetPoint" />
          </mxGeometry>
        </mxCell>
        <mxCell id="J-M-ponjF-od5S9jLfGf-30" value="" style="endArrow=classic;html=1;rounded=0;entryX=0.865;entryY=-0.001;entryDx=0;entryDy=0;entryPerimeter=0;" edge="1" parent="1">
          <mxGeometry width="50" height="50" relative="1" as="geometry">
            <mxPoint x="820" y="480" as="sourcePoint" />
            <mxPoint x="820" y="460" as="targetPoint" />
          </mxGeometry>
        </mxCell>
        <mxCell id="J-M-ponjF-od5S9jLfGf-31" value="" style="endArrow=classic;html=1;rounded=0;entryX=0.865;entryY=-0.001;entryDx=0;entryDy=0;entryPerimeter=0;" edge="1" parent="1">
          <mxGeometry width="50" height="50" relative="1" as="geometry">
            <mxPoint x="827" y="420" as="sourcePoint" />
            <mxPoint x="827" y="400" as="targetPoint" />
          </mxGeometry>
        </mxCell>
        <mxCell id="J-M-ponjF-od5S9jLfGf-33" value="" style="endArrow=classic;html=1;rounded=0;entryX=0.5;entryY=1;entryDx=0;entryDy=0;" edge="1" parent="1" target="J-M-ponjF-od5S9jLfGf-16">
          <mxGeometry width="50" height="50" relative="1" as="geometry">
            <mxPoint x="920" y="360" as="sourcePoint" />
            <mxPoint x="970" y="310" as="targetPoint" />
          </mxGeometry>
        </mxCell>
        <mxCell id="J-M-ponjF-od5S9jLfGf-36" value="" style="endArrow=classic;html=1;rounded=0;entryX=-0.002;entryY=0.585;entryDx=0;entryDy=0;entryPerimeter=0;" edge="1" parent="1" target="J-M-ponjF-od5S9jLfGf-7">
          <mxGeometry width="50" height="50" relative="1" as="geometry">
            <mxPoint x="360" y="830" as="sourcePoint" />
            <mxPoint x="410" y="770" as="targetPoint" />
            <Array as="points">
              <mxPoint x="410" y="830" />
            </Array>
          </mxGeometry>
        </mxCell>
        <mxCell id="J-M-ponjF-od5S9jLfGf-37" value="" style="endArrow=none;html=1;rounded=0;" edge="1" parent="1">
          <mxGeometry width="50" height="50" relative="1" as="geometry">
            <mxPoint x="360" y="830" as="sourcePoint" />
            <mxPoint x="360" y="760" as="targetPoint" />
          </mxGeometry>
        </mxCell>
        <mxCell id="J-M-ponjF-od5S9jLfGf-38" value="" style="endArrow=none;html=1;rounded=0;" edge="1" parent="1">
          <mxGeometry width="50" height="50" relative="1" as="geometry">
            <mxPoint x="690" y="830" as="sourcePoint" />
            <mxPoint x="770" y="830" as="targetPoint" />
          </mxGeometry>
        </mxCell>
        <mxCell id="J-M-ponjF-od5S9jLfGf-39" value="" style="endArrow=classic;html=1;rounded=0;entryX=0.087;entryY=1.05;entryDx=0;entryDy=0;entryPerimeter=0;" edge="1" parent="1" target="J-M-ponjF-od5S9jLfGf-8">
          <mxGeometry width="50" height="50" relative="1" as="geometry">
            <mxPoint x="770" y="830" as="sourcePoint" />
            <mxPoint x="820" y="780" as="targetPoint" />
          </mxGeometry>
        </mxCell>
        <mxCell id="J-M-ponjF-od5S9jLfGf-40" value="" style="endArrow=classic;html=1;rounded=0;entryX=0;entryY=0.5;entryDx=0;entryDy=0;" edge="1" parent="1" target="J-M-ponjF-od5S9jLfGf-8">
          <mxGeometry width="50" height="50" relative="1" as="geometry">
            <mxPoint x="380" y="740" as="sourcePoint" />
            <mxPoint x="430" y="690" as="targetPoint" />
          </mxGeometry>
        </mxCell>
        <mxCell id="J-M-ponjF-od5S9jLfGf-41" value="" style="endArrow=classic;html=1;rounded=0;entryX=0;entryY=0.5;entryDx=0;entryDy=0;" edge="1" parent="1" target="J-M-ponjF-od5S9jLfGf-9">
          <mxGeometry width="50" height="50" relative="1" as="geometry">
            <mxPoint x="370" y="679.55" as="sourcePoint" />
            <mxPoint x="740" y="679.55" as="targetPoint" />
          </mxGeometry>
        </mxCell>
        <mxCell id="J-M-ponjF-od5S9jLfGf-42" value="" style="endArrow=classic;html=1;rounded=0;entryX=0;entryY=0.5;entryDx=0;entryDy=0;" edge="1" parent="1" target="J-M-ponjF-od5S9jLfGf-11">
          <mxGeometry width="50" height="50" relative="1" as="geometry">
            <mxPoint x="360" y="620" as="sourcePoint" />
            <mxPoint x="410" y="570" as="targetPoint" />
          </mxGeometry>
        </mxCell>
        <mxCell id="J-M-ponjF-od5S9jLfGf-43" value="" style="endArrow=classic;html=1;rounded=0;entryX=0;entryY=0.5;entryDx=0;entryDy=0;" edge="1" parent="1" target="J-M-ponjF-od5S9jLfGf-12">
          <mxGeometry width="50" height="50" relative="1" as="geometry">
            <mxPoint x="350" y="560" as="sourcePoint" />
            <mxPoint x="400" y="510" as="targetPoint" />
          </mxGeometry>
        </mxCell>
        <mxCell id="J-M-ponjF-od5S9jLfGf-44" value="" style="endArrow=classic;html=1;rounded=0;entryX=0;entryY=0.5;entryDx=0;entryDy=0;" edge="1" parent="1" target="J-M-ponjF-od5S9jLfGf-13">
          <mxGeometry width="50" height="50" relative="1" as="geometry">
            <mxPoint x="340" y="500" as="sourcePoint" />
            <mxPoint x="390" y="450" as="targetPoint" />
          </mxGeometry>
        </mxCell>
        <mxCell id="J-M-ponjF-od5S9jLfGf-45" value="" style="endArrow=classic;html=1;rounded=0;entryX=0;entryY=0.5;entryDx=0;entryDy=0;" edge="1" parent="1" target="J-M-ponjF-od5S9jLfGf-14">
          <mxGeometry width="50" height="50" relative="1" as="geometry">
            <mxPoint x="330" y="440" as="sourcePoint" />
            <mxPoint x="380" y="390" as="targetPoint" />
          </mxGeometry>
        </mxCell>
        <mxCell id="J-M-ponjF-od5S9jLfGf-46" value="" style="endArrow=classic;html=1;rounded=0;entryX=0;entryY=0.5;entryDx=0;entryDy=0;" edge="1" parent="1" target="J-M-ponjF-od5S9jLfGf-15">
          <mxGeometry width="50" height="50" relative="1" as="geometry">
            <mxPoint x="320" y="380" as="sourcePoint" />
            <mxPoint x="370" y="330" as="targetPoint" />
          </mxGeometry>
        </mxCell>
      </root>
    </mxGraphModel>
  </diagram>
</mxfile>
